<svg xmlns="http://www.w3.org/2000/svg" width="430" height="93" viewBox="0 0 430 93">
  <path fill="#4A90E2" d="M201.81463,91.0894819 C201.81463,94.0743216 202.905411,96.5724651 205.087006,98.5839874 C207.301162,100.627954 209.824611,101.649922 212.657428,101.649922 C215.392563,101.649922 217.802049,100.627954 219.885961,98.5839874 C221.90475,96.604909 222.946691,94.1067655 223.011813,91.0894819 L223.011813,73.4725275 C222.946691,70.4552439 221.90475,67.9571004 219.885961,65.978022 C217.802049,63.9340557 215.197199,62.9120879 212.071331,62.9120879 C209.336197,62.9120879 206.942991,63.9340557 204.89164,65.978022 C202.872851,67.9895443 201.847191,70.3903576 201.81463,73.1805338 L201.81463,91.0894819 Z M230.826443,36 L230.826443,91.2354788 C230.826443,96.2967286 229.019327,100.611704 225.405043,104.180534 C221.790759,107.749364 217.443915,109.533752 212.36438,109.533752 C207.284845,109.533752 202.954281,107.749364 199.372558,104.180534 C195.790835,100.611704 194,96.2967286 194,91.2354788 L194,73.3265306 C194,68.2652808 195.790835,63.9503057 199.372558,60.3814757 C202.954281,56.8126457 207.284845,55.0282575 212.36438,55.0282575 C216.369398,55.0282575 219.918506,56.1313338 223.011813,58.3375196 L223.011813,39.4065934 L230.826443,36 Z M268.82508,101.649922 C271.560214,101.649922 273.9697,100.627954 276.053612,98.5839874 C278.072401,96.604909 279.114342,94.1067655 279.179464,91.0894819 L279.179464,90.4081633 L286.994094,86.9529042 L286.994094,91.2354788 C286.994094,95.7776261 285.040456,100.125045 281.133121,104.277865 C277.811887,107.781807 273.611566,109.533752 268.532031,109.533752 C263.452496,109.533752 259.121932,107.749364 255.540209,104.180534 C251.958486,100.611704 250.167651,96.2967286 250.167651,91.2354788 L250.167651,73.3265306 C250.167651,68.2652808 251.958486,63.9503057 255.540209,60.3814757 C259.121932,56.8126457 263.452496,55.0282575 268.532031,55.0282575 C273.416199,55.0282575 277.763043,56.8126457 281.572694,60.3814757 C285.186979,63.7556422 286.994094,68.0706174 286.994094,73.3265306 L286.994094,77.9010989 L257.982281,90.7488226 C257.982281,93.830994 259.007941,96.4183569 261.059291,98.510989 C263.110642,100.603621 265.699212,101.649922 268.82508,101.649922 Z M268.238982,62.9120879 C265.503848,62.9120879 263.110642,63.9340557 261.059291,65.978022 C259.007941,68.0219882 257.982281,70.4714666 257.982281,73.3265306 L257.982281,82.2323391 L279.130622,72.8398744 C278.967817,70.1145861 277.942157,67.8273248 276.053612,65.978022 C273.9697,63.9340557 271.36485,62.9120879 268.238982,62.9120879 Z M320.694684,109.533752 L300.327806,58.4348509 L307.458655,55.0282575 L324.748523,98.4379906 L342.136075,54.9309262 L349.169241,58.3375196 L329.486143,106.127159 L320.694684,109.533752 Z M370.317583,91.0894819 C370.317583,94.0743216 371.408364,96.5724651 373.589959,98.5839874 C375.804115,100.627954 378.327564,101.649922 381.160382,101.649922 C383.895516,101.649922 386.305002,100.627954 388.388914,98.5839874 C390.407704,96.604909 391.449644,94.1067655 391.514766,91.0894819 L391.514766,73.4725275 C391.449644,70.4552439 390.407704,67.9571004 388.388914,65.978022 C386.305002,63.9340557 383.700152,62.9120879 380.574284,62.9120879 C377.83915,62.9120879 375.445944,63.9340557 373.394593,65.978022 C371.375804,67.9895443 370.350144,70.3903576 370.317583,73.1805338 L370.317583,91.0894819 Z M362.502953,73.3265306 C362.502953,68.2652808 364.293788,63.9503057 367.875511,60.3814757 C371.457234,56.8126457 375.787798,55.0282575 380.867333,55.0282575 C385.946868,55.0282575 390.293712,56.8126457 393.907996,60.3814757 C397.522281,63.9503057 399.329396,68.2652808 399.329396,73.3265306 L399.329396,91.2354788 C399.329396,96.2967286 397.522281,100.611704 393.907996,104.180534 C390.293712,107.749364 385.946868,109.533752 380.867333,109.533752 C375.787798,109.533752 371.457234,107.749364 367.875511,104.180534 C364.293788,100.611704 362.502953,96.2967286 362.502953,91.2354788 L362.502953,73.3265306 Z M426.485234,91.0894819 C426.485234,94.0743216 427.576015,96.5724651 429.75761,98.5839874 C431.971766,100.627954 434.495215,101.649922 437.328033,101.649922 C440.063167,101.649922 442.472654,100.627954 444.556565,98.5839874 C446.575355,96.604909 447.617295,94.1067655 447.682417,91.0894819 L447.682417,73.4725275 C447.617295,70.4552439 446.575355,67.9571004 444.556565,65.978022 C442.472654,63.9340557 439.867803,62.9120879 436.741935,62.9120879 C434.006801,62.9120879 431.613595,63.9340557 429.562244,65.978022 C427.543455,67.9895443 426.517795,70.3903576 426.485234,73.1805338 L426.485234,91.0894819 Z M418.670604,73.3265306 C418.670604,68.2652808 420.461439,63.9503057 424.043162,60.3814757 C427.624885,56.8126457 431.955449,55.0282575 437.034984,55.0282575 C442.114519,55.0282575 446.461363,56.8126457 450.075647,60.3814757 C453.689932,63.9503057 455.497047,68.2652808 455.497047,73.3265306 L455.497047,91.2354788 C455.497047,96.2967286 453.689932,100.611704 450.075647,104.180534 C446.461363,107.749364 442.114519,109.533752 437.034984,109.533752 C431.955449,109.533752 427.624885,107.749364 424.043162,104.180534 C420.461439,100.611704 418.670604,96.2967286 418.670604,91.2354788 L418.670604,73.3265306 Z M503.850068,110.55573 L503.850068,106.22449 C500.756762,108.430676 497.207653,109.533752 493.202635,109.533752 C488.1231,109.533752 483.792536,107.749364 480.210813,104.180534 C476.62909,100.611704 474.838255,96.2967286 474.838255,91.2354788 L474.838255,73.3265306 C474.838255,68.2652808 476.62909,63.9503057 480.210813,60.3814757 C483.792536,56.8126457 488.1231,55.0282575 493.202635,55.0282575 C498.28217,55.0282575 502.629014,56.8126457 506.243299,60.3814757 C509.857583,63.9503057 511.664698,68.2652808 511.664698,73.3265306 L511.664698,110.701727 C511.664698,115.762977 509.857583,120.077952 506.243299,123.646782 C502.629014,127.215612 498.28217,129 493.202635,129 C488.1231,129 483.792536,127.215612 480.210813,123.646782 C477.931535,121.375708 476.384905,118.812678 475.570877,115.957614 L483.336665,114.302983 C483.857643,115.698071 484.7205,116.947143 485.925261,118.050235 C488.171979,120.094202 490.695427,121.11617 493.495684,121.11617 C496.230818,121.11617 498.640305,120.094202 500.724216,118.050235 C502.743006,116.071157 503.784946,113.573014 503.850068,110.55573 Z M482.652885,91.0894819 C482.652885,94.0743216 483.743666,96.5724651 485.925261,98.5839874 C488.139417,100.627954 490.662866,101.649922 493.495684,101.649922 C496.230818,101.649922 498.640305,100.627954 500.724216,98.5839874 C502.743006,96.604909 503.784946,94.1067655 503.850068,91.0894819 L503.850068,73.4725275 C503.784946,70.4552439 502.743006,67.9571004 500.724216,65.978022 C498.640305,63.9340557 496.035454,62.9120879 492.909587,62.9120879 C490.174452,62.9120879 487.781246,63.9340557 485.729896,65.978022 C483.711106,67.9895443 482.685446,70.3903576 482.652885,73.1805338 L482.652885,91.0894819 Z M560.017719,90.7488226 L567.832349,87.3422292 L567.832349,91.2354788 C567.832349,96.2967286 566.041514,100.611704 562.459791,104.180534 C558.878068,107.749364 554.547504,109.533752 549.467969,109.533752 C544.388434,109.533752 540.04159,107.749364 536.427306,104.180534 C532.813021,100.611704 531.005906,96.2967286 531.005906,91.2354788 L531.005906,39.4065934 L538.820536,36 L538.820536,91.0894819 C538.885658,94.1067655 539.927599,96.604909 541.946388,98.5839874 C544.0303,100.627954 546.63515,101.649922 549.761018,101.649922 C552.496152,101.649922 554.889358,100.546845 556.940709,98.3406593 C558.992059,96.1344735 560.017719,93.6038866 560.017719,90.7488226 Z M605.830986,101.649922 C608.56612,101.649922 610.975607,100.627954 613.059518,98.5839874 C615.078308,96.604909 616.120248,94.1067655 616.18537,91.0894819 L616.18537,90.4081633 L624,86.9529042 L624,91.2354788 C624,95.7776261 622.046362,100.125045 618.139028,104.277865 C614.817793,107.781807 610.617472,109.533752 605.537937,109.533752 C600.458403,109.533752 596.127839,107.749364 592.546115,104.180534 C588.964392,100.611704 587.173557,96.2967286 587.173557,91.2354788 L587.173557,73.3265306 C587.173557,68.2652808 588.964392,63.9503057 592.546115,60.3814757 C596.127839,56.8126457 600.458403,55.0282575 605.537937,55.0282575 C610.422105,55.0282575 614.76895,56.8126457 618.578601,60.3814757 C622.192885,63.7556422 624,68.0706174 624,73.3265306 L624,77.9010989 L594.988187,90.7488226 C594.988187,93.830994 596.013847,96.4183569 598.065198,98.510989 C600.116548,100.603621 602.705118,101.649922 605.830986,101.649922 Z M605.244889,62.9120879 C602.509755,62.9120879 600.116548,63.9340557 598.065198,65.978022 C596.013847,68.0219882 594.988187,70.4714666 594.988187,73.3265306 C594.988187,73.3914184 594.988187,73.4400836 594.988187,73.4725275 L594.988187,82.2323391 L616.136529,72.8398744 C615.973723,70.1145861 614.948063,67.8273248 613.059518,65.978022 C610.975607,63.9340557 608.370756,62.9120879 605.244889,62.9120879 Z" transform="translate(-194 -36)"/>
</svg>
