<svg xmlns="http://www.w3.org/2000/svg" width="160" height="179" viewBox="0 0 160 179">
  <defs>
    <linearGradient id="isotype-a" x1="12.5%" x2="89%" y1="0%" y2="101%">
      <stop offset="0%" stop-color="#3023AE"/>
      <stop offset="100%" stop-color="#4A90E2"/>
    </linearGradient>
    <linearGradient id="isotype-b" x1="-26.579%" x2="105.943%" y1="-35.042%" y2="116.914%">
      <stop offset="0%" stop-color="#3023AE"/>
      <stop offset="100%" stop-color="#4A90E2"/>
    </linearGradient>
  </defs>
  <g fill="none" fill-rule="evenodd">
    <path fill="url(#isotype-a)" d="M76,0 L151.34421,43.5 L151.34421,130.5 L76,174 L0.655789871,130.5 L0.655789871,43.5 L76,0 Z M76.5,23 L20.6413615,55.25 L20.6413615,119.75 L76.5,152 L132.358639,119.75 L132.358639,55.25 L76.5,23 Z" opacity=".155" transform="translate(8 5)"/>
    <path fill="url(#isotype-a)" d="M75.3442101,0 L150.68842,43.5 L150.68842,130.5 L75.3442101,174 L7.28306304e-14,130.5 L2.48689958e-14,43.5 L75.3442101,0 Z M75.8442101,23 L19.9855716,55.25 L19.9855716,119.75 L75.8442101,152 L131.702849,119.75 L131.702849,55.25 L75.8442101,23 Z"/>
    <path fill="url(#isotype-b)" fill-rule="nonzero" d="M18.3431458,24 L1.17157288,6.82842712 C-0.390524292,5.26632996 -0.390524292,2.73367004 1.17157288,1.17157288 C2.73367004,-0.390524292 5.26632996,-0.390524292 6.82842712,1.17157288 L26.8284271,21.1715729 C28.3905243,22.73367 28.3905243,25.26633 26.8284271,26.8284271 L6.82842712,46.8284271 C5.26632996,48.3905243 2.73367004,48.3905243 1.17157288,46.8284271 C-0.390524292,45.26633 -0.390524292,42.73367 1.17157288,41.1715729 L18.3431458,24 Z M31,54.5 C28.790861,54.5 27,52.709139 27,50.5 C27,48.290861 28.790861,46.5 31,46.5 L57,46.5 C59.209139,46.5 61,48.290861 61,50.5 C61,52.709139 59.209139,54.5 57,54.5 L31,54.5 Z" transform="translate(46 59)"/>
  </g>
</svg>
