<svg xmlns="http://www.w3.org/2000/svg" width="640" height="190" viewBox="0 0 640 190">
  <defs>
    <linearGradient id="logo_devoogle-a" x1="12.5%" x2="89%" y1="0%" y2="101%">
      <stop offset="0%" stop-color="#3023AE"/>
      <stop offset="100%" stop-color="#4A90E2"/>
    </linearGradient>
    <linearGradient id="logo_devoogle-b" x1="-26.579%" x2="105.943%" y1="-35.042%" y2="116.914%">
      <stop offset="0%" stop-color="#3023AE"/>
      <stop offset="100%" stop-color="#4A90E2"/>
    </linearGradient>
  </defs>
  <g fill="none" fill-rule="evenodd">
    <g transform="translate(13 5)">
      <path fill="url(#logo_devoogle-a)" d="M76,0 L151.34421,43.5 L151.34421,130.5 L76,174 L0.655789871,130.5 L0.655789871,43.5 L76,0 Z M76.5,23 L20.6413615,55.25 L20.6413615,119.75 L76.5,152 L132.358639,119.75 L132.358639,55.25 L76.5,23 Z" opacity=".155" transform="translate(8 5)"/>
      <path fill="url(#logo_devoogle-a)" d="M75.3442101,0 L150.68842,43.5 L150.68842,130.5 L75.3442101,174 L7.28306304e-14,130.5 L2.48689958e-14,43.5 L75.3442101,0 Z M75.8442101,23 L19.9855716,55.25 L19.9855716,119.75 L75.8442101,152 L131.702849,119.75 L131.702849,55.25 L75.8442101,23 Z"/>
      <path fill="url(#logo_devoogle-b)" fill-rule="nonzero" d="M18.3431458,24 L1.17157288,6.82842712 C-0.390524292,5.26632996 -0.390524292,2.73367004 1.17157288,1.17157288 C2.73367004,-0.390524292 5.26632996,-0.390524292 6.82842712,1.17157288 L26.8284271,21.1715729 C28.3905243,22.73367 28.3905243,25.26633 26.8284271,26.8284271 L6.82842712,46.8284271 C5.26632996,48.3905243 2.73367004,48.3905243 1.17157288,46.8284271 C-0.390524292,45.26633 -0.390524292,42.73367 1.17157288,41.1715729 L18.3431458,24 Z M31,54.5 C28.790861,54.5 27,52.709139 27,50.5 C27,48.290861 28.790861,46.5 31,46.5 L57,46.5 C59.209139,46.5 61,48.290861 61,50.5 C61,52.709139 59.209139,54.5 57,54.5 L31,54.5 Z" transform="translate(46 59)"/>
    </g>
    <path fill="#4A90E2" fill-rule="nonzero" d="M201.81463,91.0894819 C201.81463,94.0743216 202.905411,96.5724651 205.087006,98.5839874 C207.301162,100.627954 209.824611,101.649922 212.657428,101.649922 C215.392563,101.649922 217.802049,100.627954 219.885961,98.5839874 C221.90475,96.604909 222.946691,94.1067655 223.011813,91.0894819 L223.011813,73.4725275 C222.946691,70.4552439 221.90475,67.9571004 219.885961,65.978022 C217.802049,63.9340557 215.197199,62.9120879 212.071331,62.9120879 C209.336197,62.9120879 206.942991,63.9340557 204.89164,65.978022 C202.872851,67.9895443 201.847191,70.3903576 201.81463,73.1805338 L201.81463,91.0894819 Z M230.826443,36 L230.826443,91.2354788 C230.826443,96.2967286 229.019327,100.611704 225.405043,104.180534 C221.790759,107.749364 217.443915,109.533752 212.36438,109.533752 C207.284845,109.533752 202.954281,107.749364 199.372558,104.180534 C195.790835,100.611704 194,96.2967286 194,91.2354788 L194,73.3265306 C194,68.2652808 195.790835,63.9503057 199.372558,60.3814757 C202.954281,56.8126457 207.284845,55.0282575 212.36438,55.0282575 C216.369398,55.0282575 219.918506,56.1313338 223.011813,58.3375196 L223.011813,39.4065934 L230.826443,36 Z M268.82508,101.649922 C271.560214,101.649922 273.9697,100.627954 276.053612,98.5839874 C278.072401,96.604909 279.114342,94.1067655 279.179464,91.0894819 L279.179464,90.4081633 L286.994094,86.9529042 L286.994094,91.2354788 C286.994094,95.7776261 285.040456,100.125045 281.133121,104.277865 C277.811887,107.781807 273.611566,109.533752 268.532031,109.533752 C263.452496,109.533752 259.121932,107.749364 255.540209,104.180534 C251.958486,100.611704 250.167651,96.2967286 250.167651,91.2354788 L250.167651,73.3265306 C250.167651,68.2652808 251.958486,63.9503057 255.540209,60.3814757 C259.121932,56.8126457 263.452496,55.0282575 268.532031,55.0282575 C273.416199,55.0282575 277.763043,56.8126457 281.572694,60.3814757 C285.186979,63.7556422 286.994094,68.0706174 286.994094,73.3265306 L286.994094,77.9010989 L257.982281,90.7488226 C257.982281,93.830994 259.007941,96.4183569 261.059291,98.510989 C263.110642,100.603621 265.699212,101.649922 268.82508,101.649922 Z M268.238982,62.9120879 C265.503848,62.9120879 263.110642,63.9340557 261.059291,65.978022 C259.007941,68.0219882 257.982281,70.4714666 257.982281,73.3265306 L257.982281,82.2323391 L279.130622,72.8398744 C278.967817,70.1145861 277.942157,67.8273248 276.053612,65.978022 C273.9697,63.9340557 271.36485,62.9120879 268.238982,62.9120879 Z M320.694684,109.533752 L300.327806,58.4348509 L307.458655,55.0282575 L324.748523,98.4379906 L342.136075,54.9309262 L349.169241,58.3375196 L329.486143,106.127159 L320.694684,109.533752 Z M370.317583,91.0894819 C370.317583,94.0743216 371.408364,96.5724651 373.589959,98.5839874 C375.804115,100.627954 378.327564,101.649922 381.160382,101.649922 C383.895516,101.649922 386.305002,100.627954 388.388914,98.5839874 C390.407704,96.604909 391.449644,94.1067655 391.514766,91.0894819 L391.514766,73.4725275 C391.449644,70.4552439 390.407704,67.9571004 388.388914,65.978022 C386.305002,63.9340557 383.700152,62.9120879 380.574284,62.9120879 C377.83915,62.9120879 375.445944,63.9340557 373.394593,65.978022 C371.375804,67.9895443 370.350144,70.3903576 370.317583,73.1805338 L370.317583,91.0894819 Z M362.502953,73.3265306 C362.502953,68.2652808 364.293788,63.9503057 367.875511,60.3814757 C371.457234,56.8126457 375.787798,55.0282575 380.867333,55.0282575 C385.946868,55.0282575 390.293712,56.8126457 393.907996,60.3814757 C397.522281,63.9503057 399.329396,68.2652808 399.329396,73.3265306 L399.329396,91.2354788 C399.329396,96.2967286 397.522281,100.611704 393.907996,104.180534 C390.293712,107.749364 385.946868,109.533752 380.867333,109.533752 C375.787798,109.533752 371.457234,107.749364 367.875511,104.180534 C364.293788,100.611704 362.502953,96.2967286 362.502953,91.2354788 L362.502953,73.3265306 Z M426.485234,91.0894819 C426.485234,94.0743216 427.576015,96.5724651 429.75761,98.5839874 C431.971766,100.627954 434.495215,101.649922 437.328033,101.649922 C440.063167,101.649922 442.472654,100.627954 444.556565,98.5839874 C446.575355,96.604909 447.617295,94.1067655 447.682417,91.0894819 L447.682417,73.4725275 C447.617295,70.4552439 446.575355,67.9571004 444.556565,65.978022 C442.472654,63.9340557 439.867803,62.9120879 436.741935,62.9120879 C434.006801,62.9120879 431.613595,63.9340557 429.562244,65.978022 C427.543455,67.9895443 426.517795,70.3903576 426.485234,73.1805338 L426.485234,91.0894819 Z M418.670604,73.3265306 C418.670604,68.2652808 420.461439,63.9503057 424.043162,60.3814757 C427.624885,56.8126457 431.955449,55.0282575 437.034984,55.0282575 C442.114519,55.0282575 446.461363,56.8126457 450.075647,60.3814757 C453.689932,63.9503057 455.497047,68.2652808 455.497047,73.3265306 L455.497047,91.2354788 C455.497047,96.2967286 453.689932,100.611704 450.075647,104.180534 C446.461363,107.749364 442.114519,109.533752 437.034984,109.533752 C431.955449,109.533752 427.624885,107.749364 424.043162,104.180534 C420.461439,100.611704 418.670604,96.2967286 418.670604,91.2354788 L418.670604,73.3265306 Z M503.850068,110.55573 L503.850068,106.22449 C500.756762,108.430676 497.207653,109.533752 493.202635,109.533752 C488.1231,109.533752 483.792536,107.749364 480.210813,104.180534 C476.62909,100.611704 474.838255,96.2967286 474.838255,91.2354788 L474.838255,73.3265306 C474.838255,68.2652808 476.62909,63.9503057 480.210813,60.3814757 C483.792536,56.8126457 488.1231,55.0282575 493.202635,55.0282575 C498.28217,55.0282575 502.629014,56.8126457 506.243299,60.3814757 C509.857583,63.9503057 511.664698,68.2652808 511.664698,73.3265306 L511.664698,110.701727 C511.664698,115.762977 509.857583,120.077952 506.243299,123.646782 C502.629014,127.215612 498.28217,129 493.202635,129 C488.1231,129 483.792536,127.215612 480.210813,123.646782 C477.931535,121.375708 476.384905,118.812678 475.570877,115.957614 L483.336665,114.302983 C483.857643,115.698071 484.7205,116.947143 485.925261,118.050235 C488.171979,120.094202 490.695427,121.11617 493.495684,121.11617 C496.230818,121.11617 498.640305,120.094202 500.724216,118.050235 C502.743006,116.071157 503.784946,113.573014 503.850068,110.55573 Z M482.652885,91.0894819 C482.652885,94.0743216 483.743666,96.5724651 485.925261,98.5839874 C488.139417,100.627954 490.662866,101.649922 493.495684,101.649922 C496.230818,101.649922 498.640305,100.627954 500.724216,98.5839874 C502.743006,96.604909 503.784946,94.1067655 503.850068,91.0894819 L503.850068,73.4725275 C503.784946,70.4552439 502.743006,67.9571004 500.724216,65.978022 C498.640305,63.9340557 496.035454,62.9120879 492.909587,62.9120879 C490.174452,62.9120879 487.781246,63.9340557 485.729896,65.978022 C483.711106,67.9895443 482.685446,70.3903576 482.652885,73.1805338 L482.652885,91.0894819 Z M560.017719,90.7488226 L567.832349,87.3422292 L567.832349,91.2354788 C567.832349,96.2967286 566.041514,100.611704 562.459791,104.180534 C558.878068,107.749364 554.547504,109.533752 549.467969,109.533752 C544.388434,109.533752 540.04159,107.749364 536.427306,104.180534 C532.813021,100.611704 531.005906,96.2967286 531.005906,91.2354788 L531.005906,39.4065934 L538.820536,36 L538.820536,91.0894819 C538.885658,94.1067655 539.927599,96.604909 541.946388,98.5839874 C544.0303,100.627954 546.63515,101.649922 549.761018,101.649922 C552.496152,101.649922 554.889358,100.546845 556.940709,98.3406593 C558.992059,96.1344735 560.017719,93.6038866 560.017719,90.7488226 Z M605.830986,101.649922 C608.56612,101.649922 610.975607,100.627954 613.059518,98.5839874 C615.078308,96.604909 616.120248,94.1067655 616.18537,91.0894819 L616.18537,90.4081633 L624,86.9529042 L624,91.2354788 C624,95.7776261 622.046362,100.125045 618.139028,104.277865 C614.817793,107.781807 610.617472,109.533752 605.537937,109.533752 C600.458403,109.533752 596.127839,107.749364 592.546115,104.180534 C588.964392,100.611704 587.173557,96.2967286 587.173557,91.2354788 L587.173557,73.3265306 C587.173557,68.2652808 588.964392,63.9503057 592.546115,60.3814757 C596.127839,56.8126457 600.458403,55.0282575 605.537937,55.0282575 C610.422105,55.0282575 614.76895,56.8126457 618.578601,60.3814757 C622.192885,63.7556422 624,68.0706174 624,73.3265306 L624,77.9010989 L594.988187,90.7488226 C594.988187,93.830994 596.013847,96.4183569 598.065198,98.510989 C600.116548,100.603621 602.705118,101.649922 605.830986,101.649922 Z M605.244889,62.9120879 C602.509755,62.9120879 600.116548,63.9340557 598.065198,65.978022 C596.013847,68.0219882 594.988187,70.4714666 594.988187,73.3265306 C594.988187,73.3914184 594.988187,73.4400836 594.988187,73.4725275 L594.988187,82.2323391 L616.136529,72.8398744 C615.973723,70.1145861 614.948063,67.8273248 613.059518,65.978022 C610.975607,63.9340557 608.370756,62.9120879 605.244889,62.9120879 Z"/>
    <path fill="#A3A3A3" fill-rule="nonzero" d="M194.690782,145.752859 C194.690782,145.982597 194.77959,146.219293 194.957209,146.462954 C195.28512,146.908505 195.80772,147.131278 196.525025,147.131278 C196.962239,147.131278 197.348212,147.026853 197.682955,146.818001 L198.297785,148.394828 C197.764929,148.68026 197.174015,148.822974 196.525025,148.822974 C195.500303,148.822974 194.59173,148.440083 193.799279,147.674291 C193.266424,147.117352 193,146.476881 193,145.752859 L193,145.669319 C193,144.367472 193.652396,143.445055 194.957209,142.902039 L199.127805,141.15813 C199.127805,140.496764 198.912617,139.941574 198.482234,139.492541 C198.05185,139.043508 197.508756,138.818996 196.852934,138.818996 C196.27909,138.818996 195.773568,139.038287 195.336354,139.476877 C194.912802,139.901544 194.694198,140.43759 194.680535,141.085032 L194.680535,141.231228 L193.040989,141.97265 L193.040989,141.053705 C193.040989,140.07906 193.450871,139.1462 194.270649,138.255097 C194.967459,137.503228 195.848707,137.1273 196.914417,137.1273 C197.980128,137.1273 198.888701,137.51019 199.640163,138.275982 C200.391626,139.041774 200.767351,139.967672 200.767351,141.053705 L200.767351,148.091994 L199.127805,148.822974 L199.127805,142.985579 L195.756487,144.384883 C195.046014,144.726009 194.690782,145.181996 194.690782,145.752859 Z M210.912045,149.042268 L210.912045,148.112879 C210.263055,148.586278 209.518435,148.822974 208.678163,148.822974 C207.612453,148.822974 206.70388,148.440083 205.952417,147.674291 C205.200955,146.908499 204.825229,145.982601 204.825229,144.896569 L204.825229,141.053705 C204.825229,139.967672 205.200955,139.041774 205.952417,138.275982 C206.70388,137.51019 207.612453,137.1273 208.678163,137.1273 C209.743874,137.1273 210.655862,137.51019 211.414156,138.275982 C212.17245,139.041774 212.551592,139.967672 212.551592,141.053705 L212.551592,149.073595 C212.551592,150.159628 212.17245,151.085526 211.414156,151.851318 C210.655862,152.61711 209.743874,153 208.678163,153 C207.612453,153 206.70388,152.61711 205.952417,151.851318 C205.474214,151.363996 205.149723,150.814026 204.978936,150.201392 L206.608236,149.846345 C206.717539,150.1457 206.898571,150.413723 207.151335,150.650423 C207.622707,151.089013 208.152139,151.308304 208.739646,151.308304 C209.31349,151.308304 209.819012,151.089013 210.256227,150.650423 C210.679778,150.225756 210.898382,149.68971 210.912045,149.042268 Z M206.464775,144.865241 C206.464775,145.505722 206.693626,146.041768 207.151335,146.473396 C207.615876,146.911986 208.145308,147.131278 208.739646,147.131278 C209.31349,147.131278 209.819012,146.911986 210.256227,146.473396 C210.679778,146.04873 210.898382,145.512683 210.912045,144.865241 L210.912045,141.085032 C210.898382,140.43759 210.679778,139.901544 210.256227,139.476877 C209.819012,139.038287 209.272502,138.818996 208.61668,138.818996 C208.042836,138.818996 207.54073,139.038287 207.110347,139.476877 C206.686795,139.908505 206.471607,140.423667 206.464775,141.022377 L206.464775,144.865241 Z M216.609469,148.822974 L216.609469,141.053705 C216.609469,139.967672 216.985195,139.041774 217.736657,138.275982 C218.48812,137.51019 219.396693,137.1273 220.462403,137.1273 C221.548608,137.1273 222.460597,137.51019 223.198397,138.275982 C223.956691,139.069621 224.335832,139.995519 224.335832,141.053705 L224.335832,141.095475 L222.696285,141.826455 L222.696285,141.085032 C222.682622,140.43759 222.464018,139.901544 222.040467,139.476877 C221.603252,139.038287 221.087483,138.818996 220.493145,138.818996 C219.87148,138.818996 219.342049,139.038287 218.904834,139.476877 C218.46762,139.915467 218.249016,140.441071 218.249016,141.053705 L218.249016,148.091994 L216.609469,148.822974 Z M232.308127,147.131278 C232.881971,147.131278 233.387492,146.911986 233.824707,146.473396 C234.248259,146.04873 234.466863,145.512683 234.480526,144.865241 L234.480526,144.719045 L236.120072,143.977623 L236.120072,144.896569 C236.120072,145.871213 235.71019,146.804073 234.890412,147.695177 C234.193602,148.447045 233.312354,148.822974 232.246644,148.822974 C231.180933,148.822974 230.27236,148.440083 229.520898,147.674291 C228.769435,146.908499 228.393709,145.982601 228.393709,144.896569 L228.393709,141.053705 C228.393709,139.967672 228.769435,139.041774 229.520898,138.275982 C230.27236,137.51019 231.180933,137.1273 232.246644,137.1273 C233.271365,137.1273 234.183354,137.51019 234.982637,138.275982 C235.740931,139.000004 236.120072,139.925902 236.120072,141.053705 L236.120072,142.035306 L230.033256,144.792143 C230.033256,145.453509 230.248444,146.0087 230.678827,146.457732 C231.10921,146.906765 231.652305,147.131278 232.308127,147.131278 Z M232.185161,138.818996 C231.611316,138.818996 231.10921,139.038287 230.678827,139.476877 C230.248444,139.915467 230.033256,140.441071 230.033256,141.053705 L230.033256,142.964694 L234.470278,140.949279 C234.436121,140.364492 234.220933,139.873697 233.824707,139.476877 C233.387492,139.038287 232.840982,138.818996 232.185161,138.818996 Z M246.264766,149.042268 L246.264766,148.112879 C245.615775,148.586278 244.871156,148.822974 244.030884,148.822974 C242.965173,148.822974 242.0566,148.440083 241.305138,147.674291 C240.553675,146.908499 240.17795,145.982601 240.17795,144.896569 L240.17795,141.053705 C240.17795,139.967672 240.553675,139.041774 241.305138,138.275982 C242.0566,137.51019 242.965173,137.1273 244.030884,137.1273 C245.096594,137.1273 246.008583,137.51019 246.766877,138.275982 C247.525171,139.041774 247.904312,139.967672 247.904312,141.053705 L247.904312,149.073595 C247.904312,150.159628 247.525171,151.085526 246.766877,151.851318 C246.008583,152.61711 245.096594,153 244.030884,153 C242.965173,153 242.0566,152.61711 241.305138,151.851318 C240.826934,151.363996 240.502444,150.814026 240.331657,150.201392 L241.960956,149.846345 C242.07026,150.1457 242.251291,150.413723 242.504056,150.650423 C242.975428,151.089013 243.50486,151.308304 244.092367,151.308304 C244.666211,151.308304 245.171733,151.089013 245.608947,150.650423 C246.032499,150.225756 246.251103,149.68971 246.264766,149.042268 Z M241.817496,144.865241 C241.817496,145.505722 242.046347,146.041768 242.504056,146.473396 C242.968597,146.911986 243.498028,147.131278 244.092367,147.131278 C244.666211,147.131278 245.171733,146.911986 245.608947,146.473396 C246.032499,146.04873 246.251103,145.512683 246.264766,144.865241 L246.264766,141.085032 C246.251103,140.43759 246.032499,139.901544 245.608947,139.476877 C245.171733,139.038287 244.625223,138.818996 243.969401,138.818996 C243.395557,138.818996 242.893451,139.038287 242.463068,139.476877 C242.039516,139.908505 241.824328,140.423667 241.817496,141.022377 L241.817496,144.865241 Z M253.611983,145.752859 C253.611983,145.982597 253.700791,146.219293 253.87841,146.462954 C254.206321,146.908505 254.728921,147.131278 255.446226,147.131278 C255.883441,147.131278 256.269413,147.026853 256.604156,146.818001 L257.218986,148.394828 C256.68613,148.68026 256.095216,148.822974 255.446226,148.822974 C254.421504,148.822974 253.512932,148.440083 252.72048,147.674291 C252.187625,147.117352 251.921201,146.476881 251.921201,145.752859 L251.921201,145.669319 C251.921201,144.367472 252.573598,143.445055 253.87841,142.902039 L258.049006,141.15813 C258.049006,140.496764 257.833818,139.941574 257.403435,139.492541 C256.973052,139.043508 256.429957,138.818996 255.774135,138.818996 C255.200291,138.818996 254.694769,139.038287 254.257555,139.476877 C253.834003,139.901544 253.615399,140.43759 253.601736,141.085032 L253.601736,141.231228 L251.96219,141.97265 L251.96219,141.053705 C251.96219,140.07906 252.372072,139.1462 253.19185,138.255097 C253.88866,137.503228 254.769908,137.1273 255.835618,137.1273 C256.901329,137.1273 257.809902,137.51019 258.561364,138.275982 C259.312827,139.041774 259.688553,139.967672 259.688553,141.053705 L259.688553,148.091994 L258.049006,148.822974 L258.049006,142.985579 L254.677689,144.384883 C253.967215,144.726009 253.611983,145.181996 253.611983,145.752859 Z M265.385977,144.865241 C265.385977,145.505722 265.614828,146.041768 266.072537,146.473396 C266.537077,146.911986 267.066509,147.131278 267.660847,147.131278 C268.234691,147.131278 268.740213,146.911986 269.177428,146.473396 C269.600979,146.04873 269.819583,145.512683 269.833246,144.865241 L269.833246,141.085032 C269.819583,140.43759 269.600979,139.901544 269.177428,139.476877 C268.740213,139.038287 268.193703,138.818996 267.537881,138.818996 C266.964037,138.818996 266.461931,139.038287 266.031548,139.476877 C265.607996,139.908505 265.392808,140.423667 265.385977,141.022377 L265.385977,144.865241 Z M271.472793,133.044257 L271.472793,144.896569 C271.472793,145.982601 271.093651,146.908499 270.335357,147.674291 C269.577063,148.440083 268.665075,148.822974 267.599364,148.822974 C266.533654,148.822974 265.625081,148.440083 264.873618,147.674291 C264.122156,146.908499 263.74643,145.982601 263.74643,144.896569 L263.74643,141.053705 C263.74643,139.967672 264.122156,139.041774 264.873618,138.275982 C265.625081,137.51019 266.533654,137.1273 267.599364,137.1273 C268.439636,137.1273 269.184256,137.363996 269.833246,137.837394 L269.833246,133.775236 L271.472793,133.044257 Z M277.170217,144.865241 C277.170217,145.505722 277.399068,146.041768 277.856777,146.473396 C278.321317,146.911986 278.850749,147.131278 279.445088,147.131278 C280.018932,147.131278 280.524453,146.911986 280.961668,146.473396 C281.38522,146.04873 281.603824,145.512683 281.617487,144.865241 L281.617487,141.085032 C281.603824,140.43759 281.38522,139.901544 280.961668,139.476877 C280.524453,139.038287 279.977943,138.818996 279.322122,138.818996 C278.748277,138.818996 278.246171,139.038287 277.815788,139.476877 C277.392237,139.908505 277.177048,140.423667 277.170217,141.022377 L277.170217,144.865241 Z M275.53067,141.053705 C275.53067,139.967672 275.906396,139.041774 276.657859,138.275982 C277.409321,137.51019 278.317894,137.1273 279.383605,137.1273 C280.449315,137.1273 281.361304,137.51019 282.119598,138.275982 C282.877892,139.041774 283.257033,139.967672 283.257033,141.053705 L283.257033,144.896569 C283.257033,145.982601 282.877892,146.908499 282.119598,147.674291 C281.361304,148.440083 280.449315,148.822974 279.383605,148.822974 C278.317894,148.822974 277.409321,148.440083 276.657859,147.674291 C275.906396,146.908499 275.53067,145.982601 275.53067,144.896569 L275.53067,141.053705 Z M287.314911,148.822974 L287.314911,141.053705 C287.314911,139.967672 287.690636,139.041774 288.442099,138.275982 C289.193561,137.51019 290.102134,137.1273 291.167845,137.1273 C292.25405,137.1273 293.166038,137.51019 293.903838,138.275982 C294.662132,139.069621 295.041273,139.995519 295.041273,141.053705 L295.041273,141.095475 L293.401727,141.826455 L293.401727,141.085032 C293.388064,140.43759 293.16946,139.901544 292.745908,139.476877 C292.308694,139.038287 291.792925,138.818996 291.198586,138.818996 C290.576922,138.818996 290.04749,139.038287 289.610276,139.476877 C289.173061,139.915467 288.954457,140.441071 288.954457,141.053705 L288.954457,148.091994 L287.314911,148.822974 Z M312.522938,144.865241 C312.522938,145.505722 312.751789,146.041768 313.209498,146.473396 C313.674038,146.911986 314.20347,147.131278 314.797808,147.131278 C315.371652,147.131278 315.877174,146.911986 316.314389,146.473396 C316.73794,146.04873 316.956544,145.512683 316.970207,144.865241 L316.970207,141.085032 C316.956544,140.43759 316.73794,139.901544 316.314389,139.476877 C315.877174,139.038287 315.330664,138.818996 314.674842,138.818996 C314.100998,138.818996 313.598892,139.038287 313.168509,139.476877 C312.744957,139.908505 312.529769,140.423667 312.522938,141.022377 L312.522938,144.865241 Z M318.609754,133.044257 L318.609754,144.896569 C318.609754,145.982601 318.230612,146.908499 317.472318,147.674291 C316.714024,148.440083 315.802036,148.822974 314.736325,148.822974 C313.670615,148.822974 312.762042,148.440083 312.010579,147.674291 C311.259117,146.908499 310.883391,145.982601 310.883391,144.896569 L310.883391,141.053705 C310.883391,139.967672 311.259117,139.041774 312.010579,138.275982 C312.762042,137.51019 313.670615,137.1273 314.736325,137.1273 C315.576597,137.1273 316.321217,137.363996 316.970207,137.837394 L316.970207,133.775236 L318.609754,133.044257 Z M326.582048,147.131278 C327.155893,147.131278 327.661414,146.911986 328.098629,146.473396 C328.522181,146.04873 328.740785,145.512683 328.754448,144.865241 L328.754448,144.719045 L330.393994,143.977623 L330.393994,144.896569 C330.393994,145.871213 329.984112,146.804073 329.164334,147.695177 C328.467523,148.447045 327.586276,148.822974 326.520565,148.822974 C325.454855,148.822974 324.546282,148.440083 323.794819,147.674291 C323.043357,146.908499 322.667631,145.982601 322.667631,144.896569 L322.667631,141.053705 C322.667631,139.967672 323.043357,139.041774 323.794819,138.275982 C324.546282,137.51019 325.454855,137.1273 326.520565,137.1273 C327.545287,137.1273 328.457276,137.51019 329.256559,138.275982 C330.014853,139.000004 330.393994,139.925902 330.393994,141.053705 L330.393994,142.035306 L324.307178,144.792143 C324.307178,145.453509 324.522366,146.0087 324.952749,146.457732 C325.383132,146.906765 325.926227,147.131278 326.582048,147.131278 Z M326.459082,138.818996 C325.885238,138.818996 325.383132,139.038287 324.952749,139.476877 C324.522366,139.915467 324.307178,140.441071 324.307178,141.053705 L324.307178,142.964694 L328.7442,140.949279 C328.710043,140.364492 328.494855,139.873697 328.098629,139.476877 C327.661414,139.038287 327.114904,138.818996 326.459082,138.818996 Z M346.236112,148.822974 L346.236112,141.053705 C346.236112,139.967672 346.611837,139.041774 347.3633,138.275982 C348.114763,137.51019 349.023335,137.1273 350.089046,137.1273 C351.175251,137.1273 352.08724,137.51019 352.825039,138.275982 C353.583333,139.069621 353.962475,139.995519 353.962475,141.053705 L353.962475,141.095475 L352.322928,141.826455 L352.322928,141.085032 C352.309265,140.43759 352.090661,139.901544 351.667109,139.476877 C351.229895,139.038287 350.714126,138.818996 350.119787,138.818996 C349.498123,138.818996 348.968691,139.038287 348.531477,139.476877 C348.094262,139.915467 347.875658,140.441071 347.875658,141.053705 L347.875658,148.091994 L346.236112,148.822974 Z M361.934769,147.131278 C362.508613,147.131278 363.014135,146.911986 363.45135,146.473396 C363.874901,146.04873 364.093505,145.512683 364.107168,144.865241 L364.107168,144.719045 L365.746715,143.977623 L365.746715,144.896569 C365.746715,145.871213 365.336832,146.804073 364.517055,147.695177 C363.820244,148.447045 362.938997,148.822974 361.873286,148.822974 C360.807576,148.822974 359.899003,148.440083 359.14754,147.674291 C358.396078,146.908499 358.020352,145.982601 358.020352,144.896569 L358.020352,141.053705 C358.020352,139.967672 358.396078,139.041774 359.14754,138.275982 C359.899003,137.51019 360.807576,137.1273 361.873286,137.1273 C362.898008,137.1273 363.809996,137.51019 364.609279,138.275982 C365.367573,139.000004 365.746715,139.925902 365.746715,141.053705 L365.746715,142.035306 L359.659898,144.792143 C359.659898,145.453509 359.875087,146.0087 360.30547,146.457732 C360.735853,146.906765 361.278947,147.131278 361.934769,147.131278 Z M361.811803,138.818996 C361.237959,138.818996 360.735853,139.038287 360.30547,139.476877 C359.875087,139.915467 359.659898,140.441071 359.659898,141.053705 L359.659898,142.964694 L364.096921,140.949279 C364.062764,140.364492 363.847575,139.873697 363.45135,139.476877 C363.014135,139.038287 362.467625,138.818996 361.811803,138.818996 Z M371.444139,144.865241 C371.444139,145.505722 371.67299,146.041768 372.130699,146.473396 C372.595239,146.911986 373.124671,147.131278 373.719009,147.131278 C374.292854,147.131278 374.798375,146.911986 375.23559,146.473396 C375.659142,146.04873 375.877746,145.512683 375.891409,144.865241 L375.891409,144.719045 L377.530955,143.977623 L377.530955,144.896569 C377.530955,145.871213 377.121072,146.804073 376.301295,147.695177 C375.604484,148.447045 374.723237,148.822974 373.657526,148.822974 C372.591816,148.822974 371.683243,148.440083 370.93178,147.674291 C370.180318,146.908499 369.804592,145.982601 369.804592,144.896569 L369.804592,141.053705 C369.804592,139.967672 370.180318,139.041774 370.93178,138.275982 C371.683243,137.51019 372.591816,137.1273 373.657526,137.1273 C374.7369,137.1273 375.648889,137.51019 376.39352,138.275982 C377.151814,139.041774 377.530955,139.967672 377.530955,141.053705 L377.530955,141.15813 L375.891409,141.909995 L375.891409,141.085032 C375.877746,140.43759 375.659142,139.901544 375.23559,139.476877 C374.798375,139.038287 374.282607,138.818996 373.688268,138.818996 C373.073435,138.818996 372.544003,139.038287 372.099957,139.476877 C371.662743,139.915467 371.444139,140.441071 371.444139,141.053705 L371.444139,144.865241 Z M385.523744,147.131278 C386.097588,147.131278 386.599694,146.911986 387.030077,146.473396 C387.46046,146.034806 387.675649,145.509202 387.675649,144.896569 L387.675649,137.858279 L389.315195,137.1273 L389.315195,144.896569 C389.315195,145.982601 388.93947,146.908499 388.188007,147.674291 C387.436544,148.440083 386.527972,148.822974 385.462261,148.822974 C384.39655,148.822974 383.484562,148.440083 382.726268,147.674291 C381.967974,146.908499 381.588832,145.982601 381.588832,144.896569 L381.588832,137.858279 L383.228379,137.1273 L383.228379,144.865241 C383.242042,145.512683 383.460646,146.04873 383.884198,146.473396 C384.321412,146.911986 384.867922,147.131278 385.523744,147.131278 Z M393.373073,148.822974 L393.373073,141.053705 C393.373073,139.967672 393.748798,139.041774 394.500261,138.275982 C395.251723,137.51019 396.160296,137.1273 397.226007,137.1273 C398.312212,137.1273 399.2242,137.51019 399.962,138.275982 C400.720294,139.069621 401.099435,139.995519 401.099435,141.053705 L401.099435,141.095475 L399.459889,141.826455 L399.459889,141.085032 C399.446226,140.43759 399.227622,139.901544 398.80407,139.476877 C398.366856,139.038287 397.851087,138.818996 397.256748,138.818996 C396.635084,138.818996 396.105652,139.038287 395.668438,139.476877 C395.231223,139.915467 395.012619,140.441071 395.012619,141.053705 L395.012619,148.091994 L393.373073,148.822974 Z M409.092224,147.131278 C409.700226,147.131278 410.202332,146.922429 410.598558,146.504724 C410.994784,146.073096 411.192893,145.592743 411.192893,145.06365 C411.192893,144.597213 410.994784,144.155149 410.598558,143.737444 C410.195501,143.319739 409.648991,143.093486 408.959011,143.058677 C408.111908,143.016907 407.439018,142.755845 406.94032,142.275485 C406.455285,141.809048 406.164951,141.14073 406.069311,140.270512 C406.062479,140.207856 406.059064,140.145202 406.059064,140.082546 C406.093221,139.323716 406.393801,138.648437 406.960814,138.056688 C407.54149,137.437093 408.248537,137.1273 409.081977,137.1273 C409.963238,137.1273 410.670285,137.437093 411.203141,138.056688 C411.558377,138.474393 411.835048,139.027843 412.033161,139.717056 L410.547322,140.38538 C410.438018,139.925905 410.27065,139.560419 410.045211,139.288911 C409.792446,139.003479 409.467956,138.860766 409.07173,138.860766 C408.695999,138.860766 408.368093,139.003479 408.088002,139.288911 C407.828406,139.553457 407.69861,139.852808 407.69861,140.186972 L407.69861,140.239184 C407.69861,140.573348 407.821575,140.862256 408.067508,141.105917 C408.292947,141.335655 408.620853,141.474888 409.051236,141.52362 C410.239913,141.662855 411.151902,142.035303 411.787229,142.640975 C412.48404,143.323226 412.83244,144.155142 412.83244,145.136748 L412.83244,145.168076 C412.818777,146.100949 412.480624,146.936346 411.81797,147.674291 C411.12116,148.440083 410.212587,148.822974 409.092224,148.822974 C408.019682,148.822974 407.138435,148.447045 406.448456,147.695177 C405.676499,146.866729 405.266616,145.933869 405.218796,144.896569 L405.208549,144.792143 L406.848095,144.061164 L406.858342,144.865241 C406.865174,145.512683 407.080362,146.04873 407.503914,146.473396 C407.941128,146.911986 408.47056,147.131278 409.092224,147.131278 Z M418.5811,144.865241 C418.5811,145.505722 418.809951,146.041768 419.26766,146.473396 C419.7322,146.911986 420.261632,147.131278 420.85597,147.131278 C421.429815,147.131278 421.935336,146.911986 422.372551,146.473396 C422.796103,146.04873 423.014707,145.512683 423.028369,144.865241 L423.028369,141.085032 C423.014707,140.43759 422.796103,139.901544 422.372551,139.476877 C421.935336,139.038287 421.388826,138.818996 420.733004,138.818996 C420.15916,138.818996 419.657054,139.038287 419.226671,139.476877 C418.803119,139.908505 418.587931,140.423667 418.5811,141.022377 L418.5811,144.865241 Z M416.941553,141.053705 C416.941553,139.967672 417.317279,139.041774 418.068741,138.275982 C418.820204,137.51019 419.728777,137.1273 420.794487,137.1273 C421.860198,137.1273 422.772187,137.51019 423.530481,138.275982 C424.288775,139.041774 424.667916,139.967672 424.667916,141.053705 L424.667916,144.896569 C424.667916,145.982601 424.288775,146.908499 423.530481,147.674291 C422.772187,148.440083 421.860198,148.822974 420.794487,148.822974 C419.728777,148.822974 418.820204,148.440083 418.068741,147.674291 C417.317279,146.908499 416.941553,145.982601 416.941553,144.896569 L416.941553,141.053705 Z M432.660705,147.131278 C433.268706,147.131278 433.770813,146.922429 434.167038,146.504724 C434.563264,146.073096 434.761374,145.592743 434.761374,145.06365 C434.761374,144.597213 434.563264,144.155149 434.167038,143.737444 C433.763981,143.319739 433.217471,143.093486 432.527492,143.058677 C431.680389,143.016907 431.007498,142.755845 430.5088,142.275485 C430.023765,141.809048 429.733432,141.14073 429.637791,140.270512 C429.63096,140.207856 429.627544,140.145202 429.627544,140.082546 C429.661701,139.323716 429.962282,138.648437 430.529295,138.056688 C431.10997,137.437093 431.817018,137.1273 432.650458,137.1273 C433.531718,137.1273 434.238766,137.437093 434.771621,138.056688 C435.126858,138.474393 435.403529,139.027843 435.601641,139.717056 L434.115802,140.38538 C434.006499,139.925905 433.83913,139.560419 433.613691,139.288911 C433.360927,139.003479 433.036436,138.860766 432.640211,138.860766 C432.264479,138.860766 431.936573,139.003479 431.656483,139.288911 C431.396887,139.553457 431.26709,139.852808 431.26709,140.186972 L431.26709,140.239184 C431.26709,140.573348 431.390055,140.862256 431.635988,141.105917 C431.861427,141.335655 432.189333,141.474888 432.619716,141.52362 C433.808393,141.662855 434.720382,142.035303 435.355709,142.640975 C436.05252,143.323226 436.40092,144.155142 436.40092,145.136748 L436.40092,145.168076 C436.387257,146.100949 436.049104,146.936346 435.386451,147.674291 C434.68964,148.440083 433.781067,148.822974 432.660705,148.822974 C431.588163,148.822974 430.706916,148.447045 430.016936,147.695177 C429.244979,146.866729 428.835097,145.933869 428.787276,144.896569 L428.777029,144.792143 L430.416576,144.061164 L430.426823,144.865241 C430.433654,145.512683 430.648843,146.04873 431.072394,146.473396 C431.509609,146.911986 432.03904,147.131278 432.660705,147.131278 Z M453.93382,144.865241 C453.93382,145.505722 454.162671,146.041768 454.62038,146.473396 C455.084921,146.911986 455.614353,147.131278 456.208691,147.131278 C456.782535,147.131278 457.288057,146.911986 457.725272,146.473396 C458.148823,146.04873 458.367427,145.512683 458.38109,144.865241 L458.38109,141.085032 C458.367427,140.43759 458.148823,139.901544 457.725272,139.476877 C457.288057,139.038287 456.741547,138.818996 456.085725,138.818996 C455.511881,138.818996 455.009775,139.038287 454.579392,139.476877 C454.15584,139.908505 453.940652,140.423667 453.93382,141.022377 L453.93382,144.865241 Z M460.020637,133.044257 L460.020637,144.896569 C460.020637,145.982601 459.641495,146.908499 458.883201,147.674291 C458.124907,148.440083 457.212919,148.822974 456.147208,148.822974 C455.081498,148.822974 454.172925,148.440083 453.421462,147.674291 C452.67,146.908499 452.294274,145.982601 452.294274,144.896569 L452.294274,141.053705 C452.294274,139.967672 452.67,139.041774 453.421462,138.275982 C454.172925,137.51019 455.081498,137.1273 456.147208,137.1273 C456.98748,137.1273 457.7321,137.363996 458.38109,137.837394 L458.38109,133.775236 L460.020637,133.044257 Z M467.992931,147.131278 C468.566775,147.131278 469.072297,146.911986 469.509512,146.473396 C469.933063,146.04873 470.151667,145.512683 470.16533,144.865241 L470.16533,144.719045 L471.804877,143.977623 L471.804877,144.896569 C471.804877,145.871213 471.394994,146.804073 470.575217,147.695177 C469.878406,148.447045 468.997159,148.822974 467.931448,148.822974 C466.865738,148.822974 465.957165,148.440083 465.205702,147.674291 C464.45424,146.908499 464.078514,145.982601 464.078514,144.896569 L464.078514,141.053705 C464.078514,139.967672 464.45424,139.041774 465.205702,138.275982 C465.957165,137.51019 466.865738,137.1273 467.931448,137.1273 C468.95617,137.1273 469.868159,137.51019 470.667442,138.275982 C471.425736,139.000004 471.804877,139.925902 471.804877,141.053705 L471.804877,142.035306 L465.718061,144.792143 C465.718061,145.453509 465.933249,146.0087 466.363632,146.457732 C466.794015,146.906765 467.337109,147.131278 467.992931,147.131278 Z M467.869965,138.818996 C467.296121,138.818996 466.794015,139.038287 466.363632,139.476877 C465.933249,139.915467 465.718061,140.441071 465.718061,141.053705 L465.718061,142.964694 L470.155083,140.949279 C470.120926,140.364492 469.905738,139.873697 469.509512,139.476877 C469.072297,139.038287 468.525787,138.818996 467.869965,138.818996 Z M489.286541,144.865241 C489.286541,145.505722 489.515392,146.041768 489.973101,146.473396 C490.437642,146.911986 490.967073,147.131278 491.561412,147.131278 C492.135256,147.131278 492.640778,146.911986 493.077992,146.473396 C493.501544,146.04873 493.720148,145.512683 493.733811,144.865241 L493.733811,141.085032 C493.720148,140.43759 493.501544,139.901544 493.077992,139.476877 C492.640778,139.038287 492.094268,138.818996 491.438446,138.818996 C490.864602,138.818996 490.362496,139.038287 489.932113,139.476877 C489.508561,139.908505 489.293373,140.423667 489.286541,141.022377 L489.286541,144.865241 Z M487.646995,152.906017 L487.646995,141.053705 C487.646995,139.967672 488.026136,139.041774 488.78443,138.275982 C489.542724,137.51019 490.454713,137.1273 491.520423,137.1273 C492.586134,137.1273 493.494707,137.51019 494.246169,138.275982 C494.997632,139.041774 495.373357,139.967672 495.373357,141.053705 L495.373357,144.896569 C495.373357,145.982601 494.997632,146.908499 494.246169,147.674291 C493.494707,148.440083 492.586134,148.822974 491.520423,148.822974 C490.680151,148.822974 489.935531,148.586278 489.286541,148.112879 L489.286541,152.175037 L487.646995,152.906017 Z M499.431235,148.822974 L499.431235,141.053705 C499.431235,139.967672 499.806961,139.041774 500.558423,138.275982 C501.309886,137.51019 502.218459,137.1273 503.284169,137.1273 C504.370374,137.1273 505.282363,137.51019 506.020162,138.275982 C506.778456,139.069621 507.157598,139.995519 507.157598,141.053705 L507.157598,141.095475 L505.518051,141.826455 L505.518051,141.085032 C505.504388,140.43759 505.285784,139.901544 504.862233,139.476877 C504.425018,139.038287 503.909249,138.818996 503.314911,138.818996 C502.693246,138.818996 502.163815,139.038287 501.7266,139.476877 C501.289385,139.915467 501.070781,140.441071 501.070781,141.053705 L501.070781,148.091994 L499.431235,148.822974 Z M512.855022,144.865241 C512.855022,145.505722 513.083873,146.041768 513.541582,146.473396 C514.006122,146.911986 514.535554,147.131278 515.129892,147.131278 C515.703736,147.131278 516.209258,146.911986 516.646473,146.473396 C517.070024,146.04873 517.288628,145.512683 517.302291,144.865241 L517.302291,141.085032 C517.288628,140.43759 517.070024,139.901544 516.646473,139.476877 C516.209258,139.038287 515.662748,138.818996 515.006926,138.818996 C514.433082,138.818996 513.930976,139.038287 513.500593,139.476877 C513.077041,139.908505 512.861853,140.423667 512.855022,141.022377 L512.855022,144.865241 Z M511.215475,141.053705 C511.215475,139.967672 511.591201,139.041774 512.342663,138.275982 C513.094126,137.51019 514.002699,137.1273 515.068409,137.1273 C516.13412,137.1273 517.046108,137.51019 517.804402,138.275982 C518.562697,139.041774 518.941838,139.967672 518.941838,141.053705 L518.941838,144.896569 C518.941838,145.982601 518.562697,146.908499 517.804402,147.674291 C517.046108,148.440083 516.13412,148.822974 515.068409,148.822974 C514.002699,148.822974 513.094126,148.440083 512.342663,147.674291 C511.591201,146.908499 511.215475,145.982601 511.215475,144.896569 L511.215475,141.053705 Z M529.086532,149.042268 L529.086532,148.112879 C528.437541,148.586278 527.692921,148.822974 526.85265,148.822974 C525.786939,148.822974 524.878366,148.440083 524.126904,147.674291 C523.375441,146.908499 522.999715,145.982601 522.999715,144.896569 L522.999715,141.053705 C522.999715,139.967672 523.375441,139.041774 524.126904,138.275982 C524.878366,137.51019 525.786939,137.1273 526.85265,137.1273 C527.91836,137.1273 528.830349,137.51019 529.588643,138.275982 C530.346937,139.041774 530.726078,139.967672 530.726078,141.053705 L530.726078,149.073595 C530.726078,150.159628 530.346937,151.085526 529.588643,151.851318 C528.830349,152.61711 527.91836,153 526.85265,153 C525.786939,153 524.878366,152.61711 524.126904,151.851318 C523.6487,151.363996 523.32421,150.814026 523.153423,150.201392 L524.782722,149.846345 C524.892026,150.1457 525.073057,150.413723 525.325822,150.650423 C525.797194,151.089013 526.326625,151.308304 526.914133,151.308304 C527.487977,151.308304 527.993498,151.089013 528.430713,150.650423 C528.854265,150.225756 529.072869,149.68971 529.086532,149.042268 Z M524.639262,144.865241 C524.639262,145.505722 524.868113,146.041768 525.325822,146.473396 C525.790362,146.911986 526.319794,147.131278 526.914133,147.131278 C527.487977,147.131278 527.993498,146.911986 528.430713,146.473396 C528.854265,146.04873 529.072869,145.512683 529.086532,144.865241 L529.086532,141.085032 C529.072869,140.43759 528.854265,139.901544 528.430713,139.476877 C527.993498,139.038287 527.446988,138.818996 526.791167,138.818996 C526.217322,138.818996 525.715216,139.038287 525.284833,139.476877 C524.861282,139.908505 524.646093,140.423667 524.639262,141.022377 L524.639262,144.865241 Z M534.783956,148.822974 L534.783956,141.053705 C534.783956,139.967672 535.159681,139.041774 535.911144,138.275982 C536.662606,137.51019 537.571179,137.1273 538.63689,137.1273 C539.723095,137.1273 540.635083,137.51019 541.372883,138.275982 C542.131177,139.069621 542.510318,139.995519 542.510318,141.053705 L542.510318,141.095475 L540.870772,141.826455 L540.870772,141.085032 C540.857109,140.43759 540.638505,139.901544 540.214953,139.476877 C539.777739,139.038287 539.26197,138.818996 538.667631,138.818996 C538.045967,138.818996 537.516535,139.038287 537.079321,139.476877 C536.642106,139.915467 536.423502,140.441071 536.423502,141.053705 L536.423502,148.091994 L534.783956,148.822974 Z M548.217989,145.752859 C548.217989,145.982597 548.306797,146.219293 548.484416,146.462954 C548.812327,146.908505 549.334927,147.131278 550.052232,147.131278 C550.489447,147.131278 550.875419,147.026853 551.210162,146.818001 L551.824992,148.394828 C551.292136,148.68026 550.701222,148.822974 550.052232,148.822974 C549.02751,148.822974 548.118937,148.440083 547.326486,147.674291 C546.793631,147.117352 546.527207,146.476881 546.527207,145.752859 L546.527207,145.669319 C546.527207,144.367472 547.179604,143.445055 548.484416,142.902039 L552.655012,141.15813 C552.655012,140.496764 552.439824,139.941574 552.009441,139.492541 C551.579058,139.043508 551.035963,138.818996 550.380141,138.818996 C549.806297,138.818996 549.300775,139.038287 548.863561,139.476877 C548.440009,139.901544 548.221405,140.43759 548.207742,141.085032 L548.207742,141.231228 L546.568196,141.97265 L546.568196,141.053705 C546.568196,140.07906 546.978078,139.1462 547.797856,138.255097 C548.494666,137.503228 549.375914,137.1273 550.441624,137.1273 C551.507335,137.1273 552.415908,137.51019 553.16737,138.275982 C553.918833,139.041774 554.294559,139.967672 554.294559,141.053705 L554.294559,148.091994 L552.655012,148.822974 L552.655012,142.985579 L549.283695,144.384883 C548.573221,144.726009 548.217989,145.181996 548.217989,145.752859 Z M557.450686,148.822974 L557.450686,139.967678 C557.450686,139.187962 557.723941,138.519645 558.270459,137.962705 C558.816977,137.405765 559.476205,137.1273 560.248162,137.1273 C561.047445,137.1273 561.706672,137.398804 562.225865,137.94182 C562.772383,137.398804 563.428195,137.1273 564.19332,137.1273 C565.013098,137.1273 565.679157,137.398804 566.191518,137.94182 C566.71071,138.491798 566.973718,139.170558 566.980549,139.97812 L566.980549,148.091994 L565.341003,148.822974 L565.35125,140.019891 C565.35125,139.671803 565.238532,139.375934 565.013094,139.132273 C564.787655,138.888611 564.521231,138.766783 564.213815,138.766783 C563.892735,138.766783 563.61948,138.888611 563.394041,139.132273 C563.161771,139.382895 563.045638,139.675284 563.045638,140.009448 L563.045638,140.019891 L563.035391,148.091994 L561.395844,148.822974 L561.406091,140.019891 C561.406091,139.671803 561.293374,139.375934 561.067935,139.132273 C560.842496,138.888611 560.576073,138.766783 560.268656,138.766783 C559.954408,138.766783 559.681153,138.888611 559.448883,139.132273 C559.216613,139.375934 559.100479,139.671803 559.100479,140.019891 L559.090232,148.091994 L557.450686,148.822974 Z M571.78647,145.752859 C571.78647,145.982597 571.875278,146.219293 572.052896,146.462954 C572.380807,146.908505 572.903407,147.131278 573.620713,147.131278 C574.057927,147.131278 574.4439,147.026853 574.778642,146.818001 L575.393472,148.394828 C574.860617,148.68026 574.269703,148.822974 573.620713,148.822974 C572.595991,148.822974 571.687418,148.440083 570.894967,147.674291 C570.362111,147.117352 570.095688,146.476881 570.095688,145.752859 L570.095688,145.669319 C570.095688,144.367472 570.748084,143.445055 572.052896,142.902039 L576.223493,141.15813 C576.223493,140.496764 576.008304,139.941574 575.577921,139.492541 C575.147538,139.043508 574.604444,138.818996 573.948622,138.818996 C573.374778,138.818996 572.869256,139.038287 572.432041,139.476877 C572.00849,139.901544 571.789886,140.43759 571.776223,141.085032 L571.776223,141.231228 L570.136676,141.97265 L570.136676,141.053705 C570.136676,140.07906 570.546559,139.1462 571.366336,138.255097 C572.063147,137.503228 572.944394,137.1273 574.010105,137.1273 C575.075815,137.1273 575.984388,137.51019 576.735851,138.275982 C577.487313,139.041774 577.863039,139.967672 577.863039,141.053705 L577.863039,148.091994 L576.223493,148.822974 L576.223493,142.985579 L572.852175,144.384883 C572.141701,144.726009 571.78647,145.181996 571.78647,145.752859 Z M583.560463,144.865241 C583.560463,145.505722 583.789314,146.041768 584.247023,146.473396 C584.711564,146.911986 585.240995,147.131278 585.835334,147.131278 C586.409178,147.131278 586.9147,146.911986 587.351914,146.473396 C587.775466,146.04873 587.99407,145.512683 588.007733,144.865241 L588.007733,144.719045 L589.647279,143.977623 L589.647279,144.896569 C589.647279,145.871213 589.237397,146.804073 588.417619,147.695177 C587.720809,148.447045 586.839561,148.822974 585.773851,148.822974 C584.70814,148.822974 583.799567,148.440083 583.048105,147.674291 C582.296642,146.908499 581.920917,145.982601 581.920917,144.896569 L581.920917,141.053705 C581.920917,139.967672 582.296642,139.041774 583.048105,138.275982 C583.799567,137.51019 584.70814,137.1273 585.773851,137.1273 C586.853224,137.1273 587.765213,137.51019 588.509844,138.275982 C589.268138,139.041774 589.647279,139.967672 589.647279,141.053705 L589.647279,141.15813 L588.007733,141.909995 L588.007733,141.085032 C587.99407,140.43759 587.775466,139.901544 587.351914,139.476877 C586.9147,139.038287 586.398931,138.818996 585.804592,138.818996 C585.189759,138.818996 584.660328,139.038287 584.216282,139.476877 C583.779067,139.915467 583.560463,140.441071 583.560463,141.053705 L583.560463,144.865241 Z M599.791973,144.792143 L601.43152,144.061164 L601.43152,144.896569 C601.43152,145.982601 601.055794,146.908499 600.304331,147.674291 C599.552869,148.440083 598.644296,148.822974 597.578585,148.822974 C596.512875,148.822974 595.600886,148.440083 594.842592,147.674291 C594.084298,146.908499 593.705157,145.982601 593.705157,144.896569 L593.705157,137.858279 L595.344703,137.1273 L595.344703,144.865241 C595.358366,145.512683 595.57697,146.04873 596.000522,146.473396 C596.437736,146.911986 596.984246,147.131278 597.640068,147.131278 C598.213912,147.131278 598.716019,146.894582 599.146402,146.421183 C599.576785,145.947785 599.791973,145.404777 599.791973,144.792143 Z M593.561696,135.404276 C593.3021,135.132768 593.172304,134.805571 593.172304,134.422675 C593.172304,134.039779 593.3021,133.714323 593.561696,133.446295 C593.821293,133.178268 594.135536,133.044257 594.504436,133.044257 C594.873335,133.044257 595.187579,133.178268 595.447175,133.446295 C595.706771,133.714323 595.836567,134.039779 595.836567,134.422675 C595.836567,134.805571 595.706771,135.131028 595.447175,135.399055 C595.187579,135.667082 594.873335,135.801094 594.504436,135.801094 C594.135536,135.801094 593.821293,135.668823 593.561696,135.404276 Z M608.69676,134.903033 L611.627449,132 L612.283268,133.702138 L609.352578,136.605172 L608.69676,134.903033 Z M609.373073,138.818996 C608.75824,138.818996 608.228808,139.038287 607.784762,139.476877 C607.347548,139.915467 607.128943,140.441071 607.128943,141.053705 L607.128943,144.927897 C607.128943,145.526607 607.357795,146.041768 607.815504,146.473396 C608.280044,146.911986 608.809476,147.131278 609.403814,147.131278 C609.977658,147.131278 610.48318,146.911986 610.920395,146.473396 C611.343946,146.04873 611.56255,145.512683 611.576213,144.865241 L611.576213,141.085032 C611.56255,140.43759 611.343946,139.901544 610.920395,139.476877 C610.48318,139.038287 609.967411,138.818996 609.373073,138.818996 Z M605.489397,141.053705 C605.489397,139.967672 605.865123,139.041774 606.616585,138.275982 C607.368048,137.51019 608.276621,137.1273 609.342331,137.1273 C610.408042,137.1273 611.32003,137.51019 612.078324,138.275982 C612.836618,139.041774 613.21576,139.967672 613.21576,141.053705 L613.21576,144.896569 C613.21576,145.982601 612.836618,146.908499 612.078324,147.674291 C611.32003,148.440083 610.408042,148.822974 609.342331,148.822974 C608.276621,148.822974 607.368048,148.440083 606.616585,147.674291 C605.865123,146.908499 605.489397,145.982601 605.489397,144.896569 L605.489397,141.053705 Z M617.273637,148.822974 L617.273637,141.053705 C617.273637,139.967672 617.649363,139.041774 618.400825,138.275982 C619.152288,137.51019 620.060861,137.1273 621.126571,137.1273 C622.192282,137.1273 623.104271,137.51019 623.862565,138.275982 C624.620859,139.041774 625,139.967672 625,141.053705 L625,148.091994 L623.360454,148.822974 L623.360454,141.085032 C623.346791,140.43759 623.128187,139.901544 622.704635,139.476877 C622.26742,139.038287 621.751652,138.818996 621.157313,138.818996 C620.54248,138.818996 620.013048,139.041768 619.569002,139.48732 C619.131788,139.918948 618.913184,140.441071 618.913184,141.053705 L618.913184,148.091994 L617.273637,148.822974 Z"/>
  </g>
</svg>
